<svg width="20" height="22" viewBox="0 0 20 22" fill="none" xmlns="http://www.w3.org/2000/svg">
<path fill-rule="evenodd" clip-rule="evenodd" d="M10 0C5.42387 0 2.31885 3.59071 2.31885 6.94511C2.31885 7.7468 2.21694 8.29727 2.08296 8.71253C1.94838 9.12967 1.76907 9.45182 1.55096 9.81689C1.52878 9.85402 1.50582 9.89216 1.48223 9.93133L1.48214 9.93148C1.28172 10.2643 1.03668 10.6712 0.850084 11.1595C0.632939 11.7277 0.5 12.382 0.5 13.2205C0.5 13.2494 0.501249 13.2782 0.503745 13.307C0.579873 14.1842 0.841576 14.9693 1.35061 15.6282C1.85701 16.2837 2.55061 16.7397 3.36666 17.0585C4.94986 17.677 7.18545 17.8476 10 17.8476C12.8161 17.8476 15.0517 17.6741 16.6349 17.0541C17.4506 16.7346 18.1437 16.2784 18.6497 15.6239C19.1585 14.9658 19.4203 14.1821 19.4963 13.3069C19.4988 13.2782 19.5 13.2494 19.5 13.2205C19.5 12.382 19.3671 11.7277 19.1499 11.1595C18.9633 10.6712 18.7183 10.2643 18.5179 9.93149C18.4942 9.89226 18.4712 9.85407 18.449 9.81689C18.2309 9.45182 18.0516 9.12967 17.917 8.71253C17.7831 8.29727 17.6812 7.7468 17.6812 6.94511C17.6812 3.59071 14.5761 0 10 0ZM4.31885 6.94511C4.31885 4.73757 6.48567 2 10 2C13.5143 2 15.6812 4.73757 15.6812 6.94511C15.6812 7.92356 15.8066 8.68487 16.0137 9.32663C16.2201 9.96652 16.4955 10.4466 16.7321 10.8427L16.799 10.9543C17.0083 11.3035 17.1617 11.5594 17.2817 11.8735C17.4026 12.1898 17.4954 12.5884 17.4998 13.1765C17.4458 13.7303 17.2893 14.1137 17.0675 14.4006C16.8372 14.6984 16.4784 14.9675 15.9056 15.1918C14.7115 15.6594 12.8231 15.8476 10 15.8476C7.17632 15.8476 5.28839 15.6621 4.09439 15.1956C3.52184 14.972 3.16341 14.7034 2.93332 14.4055C2.71145 14.1183 2.55447 13.7336 2.50016 13.1765C2.50458 12.5884 2.59741 12.1898 2.71831 11.8735C2.83833 11.5594 2.99173 11.3035 3.20105 10.9543L3.26788 10.8427C3.50449 10.4466 3.77989 9.96652 3.98635 9.32663C4.1934 8.68487 4.31885 7.92356 4.31885 6.94511ZM8.2633 19.1889C7.89417 18.7781 7.26191 18.7443 6.8511 19.1134C6.4403 19.4825 6.40651 20.1148 6.77564 20.5256C8.55401 22.5048 11.3744 22.4779 13.1319 20.5264C13.5015 20.1161 13.4684 19.4838 13.058 19.1142C12.6476 18.7446 12.0153 18.7776 11.6457 19.188C10.6749 20.266 9.2393 20.2751 8.2633 19.1889Z" fill="#64748B"/>
</svg>
