<svg width="19" height="19" viewBox="0 0 19 19" fill="none" xmlns="http://www.w3.org/2000/svg">
<path fill-rule="evenodd" clip-rule="evenodd" d="M2.37501 1.16163e-10H5.63667C6.26839 -6.23915e-06 6.87408 0.251665 7.31978 0.699349C7.76549 1.14703 8.01447 1.75384 8.01166 2.38556V5.63667C8.01166 6.94834 6.94834 8.01167 5.63667 8.01167H2.37501C1.06334 8.01167 2.34901e-05 6.94834 2.34901e-05 5.63667V2.38556C-0.00278415 1.75384 0.246197 1.14703 0.691899 0.699349C1.1376 0.251665 1.74329 -6.23915e-06 2.37501 1.16163e-10ZM5.63667 6.41778C6.07152 6.41209 6.42265 6.06096 6.42833 5.62611V2.38556C6.42833 1.94833 6.07389 1.59389 5.63667 1.59389H2.37501C1.93779 1.59389 1.58335 1.94833 1.58335 2.38556V5.62611C1.58904 6.06096 1.94017 6.41209 2.37501 6.41778H5.63667Z" fill="white"/>
<path fill-rule="evenodd" clip-rule="evenodd" d="M13.3633 1.16163e-10H16.625C17.2567 -6.23915e-06 17.8624 0.251665 18.3081 0.699349C18.7538 1.14703 19.0028 1.75384 19 2.38556V5.63667C19 6.94834 17.9367 8.01167 16.625 8.01167H13.3633C12.0517 8.01167 10.9883 6.94834 10.9883 5.63667V2.375C10.9883 1.06332 12.0517 1.16163e-10 13.3633 1.16163e-10ZM16.625 6.41778C17.0598 6.41209 17.411 6.06096 17.4166 5.62611V2.38556C17.4166 1.94833 17.0622 1.59389 16.625 1.59389H13.3633C12.9261 1.59389 12.5717 1.94833 12.5717 2.38556V5.62611C12.5774 6.06096 12.9285 6.41209 13.3633 6.41778H16.625Z" fill="white"/>
<path fill-rule="evenodd" clip-rule="evenodd" d="M2.37501 10.9883H5.63667C6.94834 10.9883 8.01166 12.0517 8.01166 13.3633V16.625C8.01166 17.9367 6.94834 19 5.63667 19H2.37501C1.74329 19 1.1376 18.7483 0.691899 18.3007C0.246197 17.853 -0.00278415 17.2462 2.34901e-05 16.6144V13.3633C2.34901e-05 12.0517 1.06334 10.9883 2.37501 10.9883ZM5.63667 17.4061C6.07389 17.4061 6.42833 17.0517 6.42833 16.6144V13.3633C6.42265 12.9285 6.07152 12.5774 5.63667 12.5717H2.37501C1.94017 12.5774 1.58904 12.9285 1.58335 13.3633V16.6144C1.58335 17.0517 1.93779 17.4061 2.37501 17.4061H5.63667Z" fill="white"/>
<path fill-rule="evenodd" clip-rule="evenodd" d="M13.3633 10.9883H16.625C17.9366 10.9883 19 12.0517 19 13.3633V16.6144C19.0028 17.2462 18.7538 17.853 18.3081 18.3007C17.8624 18.7483 17.2567 19 16.625 19H13.3633C12.7316 19 12.1259 18.7483 11.6802 18.3007C11.2345 17.853 10.9855 17.2462 10.9883 16.6144V13.3633C10.9883 12.0517 12.0516 10.9883 13.3633 10.9883ZM16.625 17.4061C17.0622 17.4061 17.4166 17.0517 17.4166 16.6144V13.3633C17.4109 12.9285 17.0598 12.5774 16.625 12.5717H13.3633C12.9285 12.5774 12.5773 12.9285 12.5716 13.3633V16.6144C12.5716 17.0517 12.9261 17.4061 13.3633 17.4061H16.625Z" fill="white"/>
</svg>
