<svg width="19" height="18" viewBox="0 0 19 18" fill="none" xmlns="http://www.w3.org/2000/svg">
<path fill-rule="evenodd" clip-rule="evenodd" d="M3.12502 1.10049e-10H6.21502C6.8135 -5.91077e-06 7.38731 0.238419 7.80956 0.662541C8.2318 1.08666 8.46768 1.66153 8.46502 2.26V5.34C8.46502 6.58264 7.45766 7.59 6.21502 7.59H3.12502C1.88238 7.59 0.875022 6.58264 0.875022 5.34V2.26C0.872362 1.66153 1.10824 1.08666 1.53049 0.662541C1.95273 0.238419 2.52655 -5.91077e-06 3.12502 1.10049e-10ZM6.21502 6.08C6.62698 6.07461 6.95964 5.74196 6.96502 5.33V2.26C6.96502 1.84579 6.62924 1.51 6.21502 1.51H3.12502C2.71081 1.51 2.37502 1.84579 2.37502 2.26V5.33C2.38041 5.74196 2.71306 6.07461 3.12502 6.08H6.21502Z" fill="black"/>
<path fill-rule="evenodd" clip-rule="evenodd" d="M13.535 1.10049e-10H16.625C17.2235 -5.91077e-06 17.7973 0.238419 18.2196 0.662541C18.6418 1.08666 18.8777 1.66153 18.875 2.26V5.34C18.875 6.58264 17.8677 7.59 16.625 7.59H13.535C12.2924 7.59 11.285 6.58264 11.285 5.34V2.25C11.285 1.00736 12.2924 1.10049e-10 13.535 1.10049e-10ZM16.625 6.08C17.037 6.07461 17.3697 5.74196 17.375 5.33V2.26C17.375 1.84579 17.0393 1.51 16.625 1.51H13.535C13.1208 1.51 12.785 1.84579 12.785 2.26V5.33C12.7904 5.74196 13.1231 6.07461 13.535 6.08H16.625Z" fill="black"/>
<path fill-rule="evenodd" clip-rule="evenodd" d="M3.12502 10.41H6.21502C7.45766 10.41 8.46502 11.4174 8.46502 12.66V15.75C8.46502 16.9926 7.45766 18 6.21502 18H3.12502C2.52655 18 1.95273 17.7616 1.53049 17.3375C1.10824 16.9133 0.872362 16.3385 0.875022 15.74V12.66C0.875022 11.4174 1.88238 10.41 3.12502 10.41ZM6.21502 16.49C6.62924 16.49 6.96502 16.1542 6.96502 15.74V12.66C6.95964 12.248 6.62698 11.9154 6.21502 11.91H3.12502C2.71306 11.9154 2.38041 12.248 2.37502 12.66V15.74C2.37502 16.1542 2.71081 16.49 3.12502 16.49H6.21502Z" fill="black"/>
<path fill-rule="evenodd" clip-rule="evenodd" d="M13.535 10.41H16.625C17.8677 10.41 18.875 11.4174 18.875 12.66V15.74C18.8777 16.3385 18.6418 16.9133 18.2196 17.3375C17.7973 17.7616 17.2235 18 16.625 18H13.535C12.9365 18 12.3627 17.7616 11.9405 17.3375C11.5182 16.9133 11.2824 16.3385 11.285 15.74V12.66C11.285 11.4174 12.2924 10.41 13.535 10.41ZM16.625 16.49C17.0392 16.49 17.375 16.1542 17.375 15.74V12.66C17.3696 12.248 17.037 11.9154 16.625 11.91H13.535C13.1231 11.9154 12.7904 12.248 12.785 12.66V15.74C12.785 16.1542 13.1208 16.49 13.535 16.49H16.625Z" fill="black"/>
</svg>
