<svg width="21" height="18" viewBox="0 0 21 18" fill="none" xmlns="http://www.w3.org/2000/svg">
<path d="M17.3749 0.629883H3.37494C1.79269 0.710815 0.568239 2.04658 0.624939 3.62988V10.5399C0.57366 12.1212 1.79516 13.4537 3.37494 13.5399H5.37494C5.78915 13.5399 6.12494 13.2041 6.12494 12.7899C6.12494 12.3757 5.78915 12.0399 5.37494 12.0399H3.37494C2.60791 11.9458 2.05435 11.2594 2.12494 10.4899V3.66988C2.05465 2.90239 2.6094 2.21894 3.37494 2.12988H17.3749C18.1405 2.21894 18.6952 2.90239 18.6249 3.66988V10.5799C18.6955 11.3494 18.142 12.0358 17.3749 12.1299H15.3749C14.9607 12.1299 14.6249 12.4657 14.6249 12.8799C14.6249 13.2941 14.9607 13.6299 15.3749 13.6299H17.3749C18.9547 13.5437 20.1762 12.2112 20.1249 10.6299V3.66988C20.1816 2.08658 18.9572 0.750815 17.3749 0.669883V0.629883Z" fill="black"/>
<path fill-rule="evenodd" clip-rule="evenodd" d="M9.21494 12.7499C9.52264 12.4424 9.93991 12.2697 10.3749 12.2699V12.2999C10.81 12.2997 11.2272 12.4724 11.5349 12.7799L13.8449 15.0899C14.3175 15.5563 14.4599 16.2627 14.205 16.8757C13.9501 17.4888 13.3488 17.886 12.6849 17.8799H8.06494C7.40104 17.886 6.79979 17.4888 6.5449 16.8757C6.29001 16.2627 6.43242 15.5563 6.90494 15.0899L9.21494 12.7499ZM12.5249 16.1499L10.3749 13.9999L8.22494 16.1499H12.5249Z" fill="black"/>
</svg>
