<svg width="24" height="24" viewBox="0 0 24 24" fill="none" xmlns="http://www.w3.org/2000/svg">
<path d="M13.1556 1.64437C12.2965 0.785212 10.9035 0.785212 10.0444 1.64437L1.64437 10.0444C0.785212 10.9035 0.785212 12.2965 1.64437 13.1556C2.12486 13.6361 2.77233 13.8479 3.4 13.7909V20C3.4 21.215 4.38497 22.2 5.6 22.2H8C9.21503 22.2 10.2 21.215 10.2 20V17.6C10.2 17.4895 10.2895 17.4 10.4 17.4H12.8C12.9105 17.4 13 17.4895 13 17.6V20C13 21.215 13.985 22.2 15.2 22.2H17.6C18.815 22.2 19.8 21.215 19.8 20V13.7909C20.4277 13.8479 21.0751 13.6361 21.5556 13.1556C22.4148 12.2965 22.4148 10.9035 21.5556 10.0444L13.1556 1.64437Z" stroke="white" stroke-width="2"/>
</svg>
