<svg width="171" height="261" viewBox="0 0 171 261" fill="none" xmlns="http://www.w3.org/2000/svg">
<g clip-path="url(#clip0_403_2341)">
<path d="M155 53.7429L154.902 104.882L120.799 139V86.5063H68.5125V34.2534H16L50.2459 0H101.269V53.8858L155 53.7429Z" fill="#0F6681"/>
<path d="M57.9799 97.0411H110.267V139H16V44.7882H57.9799V97.0411Z" fill="#228E8E"/>
</g>
<g clip-path="url(#clip1_403_2341)">
<path d="M32.5847 248.009V260.451H25.7142V248.85C25.7142 246.776 24.9454 245.776 23.491 245.776C21.6002 245.776 20.6375 247.072 20.6375 249.567V260.444H13.9471V248.844C13.9471 246.831 13.1853 245.769 11.7516 245.769C9.88858 245.769 8.87047 247.093 8.87047 249.56V260.437H2V240.593H6.82734L7.80389 242.723C9.24447 241.055 11.3361 240 13.6355 240C16.0665 240 18.1096 241.089 19.3563 242.923C20.7899 241.13 22.9993 240 25.4787 240C29.752 240 32.5847 243.315 32.5847 247.982V248.009Z" fill="#228E8E"/>
<path d="M58.0459 240.487V260.331H52.7337L52.145 258.925C50.5105 260.242 48.4466 261 46.1264 261C40.0317 261 35.6753 256.575 35.6753 250.406C35.6753 244.237 40.0317 239.887 46.1264 239.887C48.4743 239.887 50.5729 240.666 52.2212 242.017L52.9207 240.48H58.039L58.0459 240.487ZM51.5148 250.426C51.5148 247.848 49.624 245.918 47.0545 245.918C44.485 245.918 42.5942 247.855 42.5942 250.426C42.5942 252.997 44.485 254.955 47.0545 254.955C49.624 254.955 51.5148 253.018 51.5148 250.426Z" fill="#228E8E"/>
<path d="M75.6998 246.201H71.2257V260.352H64.3552V246.201H61.0585L61.0447 240.831H64.4384V238.929C64.4384 234.952 66.6339 232.629 70.8586 232.629H75.6514V237.874H72.6178C71.5997 237.874 70.9902 238.474 70.9902 239.487V240.838H75.686V246.208L75.6998 246.201Z" fill="#228E8E"/>
<path d="M99.1717 240.487V260.331H93.8596L93.2709 258.925C91.6364 260.242 89.5725 261 87.2523 261C81.1575 261 76.8011 256.575 76.8011 250.406C76.8011 244.237 81.1575 239.887 87.2523 239.887C89.6002 239.887 91.6987 240.666 93.3471 242.017L94.0466 240.48H99.1648L99.1717 240.487ZM92.6406 250.426C92.6406 247.848 90.7499 245.918 88.1804 245.918C85.6109 245.918 83.7201 247.855 83.7201 250.426C83.7201 252.997 85.6109 254.955 88.1804 254.955C90.7499 254.955 92.6406 253.018 92.6406 250.426Z" fill="#228E8E"/>
<path d="M123.204 248.4V260.352H116.334V249.199C116.334 246.911 115.524 245.746 113.737 245.746C111.659 245.746 110.364 247.214 110.364 249.758V260.352H103.493V233.346H110.364V241.817C111.832 240.638 113.702 239.922 115.683 239.922C120.261 239.922 123.204 243.258 123.204 248.4Z" fill="#228E8E"/>
<path d="M127.312 240.508H134.182V260.352H127.312V240.508ZM127.36 232.222H134.12V238.019H127.36V232.222Z" fill="#228E8E"/>
<path d="M169.082 247.904V260.345H162.211V248.744C162.211 246.67 161.442 245.67 159.988 245.67C158.097 245.67 157.134 246.966 157.134 249.461V260.338H150.444V248.738C150.444 246.725 149.682 245.663 148.248 245.663C146.385 245.663 145.367 246.987 145.367 249.454V260.331H138.497V240.487H143.324L144.301 242.617C145.741 240.949 147.833 239.894 150.132 239.894C152.563 239.894 154.606 240.983 155.853 242.817C157.287 241.024 159.496 239.894 161.976 239.894C166.249 239.894 169.082 243.21 169.082 247.876V247.904Z" fill="#228E8E"/>
<path d="M5.63074 201.728C4.57801 199.598 4.05164 197.4 4.05164 195.132C4.05164 191.644 5.36756 188.797 7.99939 186.599C10.2434 184.717 12.9098 183.772 15.9919 183.772C19.4271 183.772 22.1836 184.648 24.2475 186.392C26.3876 188.17 27.4542 190.562 27.4542 193.56V200.991C27.4542 201.239 27.5442 201.411 27.7174 201.515C27.8559 201.653 28.0498 201.721 28.2992 201.721H29.1441V208.476H25.9374C24.6423 208.476 23.5896 208.235 22.7792 207.746C22.3567 207.505 21.7957 207.05 21.0962 206.388C20.5699 206.946 19.9188 207.38 19.1501 207.698C17.9588 208.221 16.6221 208.483 15.1538 208.483H8.84435C8.35261 208.483 8.11021 208.725 8.11021 209.214V224.764L4.01009 228.011H0V208.173C0 206.602 0.505589 205.223 1.52369 204.037C2.85346 202.5 4.32868 201.735 5.94241 201.735H5.62382L5.63074 201.728ZM19.3578 193.615C19.3578 192.671 19.0392 191.906 18.409 191.313C17.848 190.789 17.1831 190.527 16.4074 190.527C13.4985 190.527 12.0441 192.361 12.0441 196.021C12.0441 197.868 12.5012 199.33 13.4085 200.391C14.3227 201.453 15.5625 201.99 17.1416 201.99C17.7372 201.99 18.4713 201.901 19.3509 201.728V193.615H19.3578Z" fill="#0F6681"/>
<path d="M32.7662 210.889C33.9228 210.889 34.9063 211.289 35.7097 212.095C36.5131 212.895 36.9218 213.874 36.9218 215.025C36.9218 216.176 36.5201 217.099 35.7097 217.906C34.8994 218.705 33.9228 219.112 32.7662 219.112C31.6096 219.112 30.6815 218.712 29.8712 217.906C29.0609 217.099 28.6592 216.141 28.6592 215.025C28.6592 213.908 29.0609 212.895 29.8712 212.095C30.6746 211.289 31.6442 210.889 32.7662 210.889ZM46.341 184.4V201.253C46.341 201.391 46.3617 201.549 46.3964 201.721H49.0282V208.476H47.4006L45.0874 206.071H44.9281C43.6329 207.677 41.9292 208.476 39.8237 208.476H28.8323V201.721H37.1988C37.552 201.721 37.8152 201.618 37.9883 201.404C38.1615 201.232 38.2515 200.984 38.2515 200.674V184.393H46.3548L46.341 184.4ZM42.1854 210.889C43.342 210.889 44.3255 211.289 45.1289 212.095C45.9323 212.895 46.341 213.874 46.341 215.025C46.341 216.176 45.9393 217.099 45.1289 217.906C44.3186 218.705 43.342 219.112 42.1854 219.112C41.0288 219.112 40.1077 218.712 39.3181 217.906C38.5286 217.099 38.1338 216.141 38.1338 215.025C38.1338 213.908 38.5286 212.895 39.3181 212.095C40.1077 211.289 41.0634 210.889 42.1854 210.889Z" fill="#0F6681"/>
<path d="M61.3841 184.979C65.3803 183.235 69.2726 182.359 73.0611 182.359C77.8677 182.359 81.7046 183.841 84.5788 186.812C87.1068 189.431 88.3673 192.816 88.3673 196.965V201.99C88.3673 204.017 87.6124 205.657 86.1025 206.912C84.8766 207.959 83.4568 208.483 81.8431 208.483H68.954C67.3403 208.483 66.1283 208.242 65.3249 207.753H65.0617C64.2514 208.242 63.0463 208.483 61.4325 208.483H48.5989V201.728H57.3809C56.9584 200.929 56.6814 200.191 56.5359 199.53C56.3282 198.764 56.2173 197.91 56.2173 196.965C56.2173 195.084 56.7437 193.422 57.7964 191.996C58.7107 190.776 59.9019 189.831 61.3702 189.17V184.979H61.3841ZM65.1725 200.784C66.1214 200.577 66.7862 200.102 67.1741 199.371C67.4927 198.847 67.6451 198.13 67.6451 197.227C67.6451 196.324 67.3957 195.449 66.9109 194.711C66.4192 194.084 65.8235 193.767 65.124 193.767C64.3899 193.767 63.7943 194.105 63.3372 194.787C62.88 195.47 62.6515 196.352 62.6515 197.427C62.6515 199.274 63.4964 200.391 65.1794 200.777L65.1725 200.784ZM80.264 197.855C80.264 194.608 79.3498 192.168 77.5283 190.527C75.9492 189.094 73.7745 188.384 71.0041 188.384C70.0899 188.384 69.0025 188.453 67.742 188.591C69.6328 189.149 71.1772 190.176 72.3685 191.679C73.5944 193.216 74.2108 194.973 74.2108 196.965C74.2108 197.875 74.0861 198.764 73.8437 199.633C73.5251 200.612 73.2619 201.308 73.0542 201.728H79.5229C79.7307 201.728 79.9246 201.639 80.1047 201.466C80.2086 201.363 80.264 201.204 80.264 200.998V197.855Z" fill="#0F6681"/>
<path d="M103.043 171V200.998C103.043 201.067 103.064 201.17 103.099 201.315L103.154 201.37C103.258 201.618 103.473 201.735 103.784 201.735H105.731V208.49H101.471C99.7535 208.49 98.2436 207.877 96.9485 206.657C95.6187 205.368 94.9469 203.81 94.9469 201.997V171H103.05H103.043Z" fill="#0F6681"/>
<path d="M114.928 201.728C113.91 199.702 113.404 197.558 113.404 195.29C113.404 193.195 113.875 191.279 114.824 189.535C115.877 187.757 117.331 186.35 119.187 185.323C121.044 184.296 123.094 183.779 125.345 183.779C128.711 183.779 131.55 184.896 133.863 187.129C136.142 189.328 137.285 192.051 137.285 195.297C137.285 197.6 136.779 199.75 135.761 201.735H138.552V208.49H130.345C128.17 208.49 126.543 208.173 125.455 207.546H125.137C124.049 208.173 122.401 208.49 120.192 208.49H105.308V201.735H114.935L114.928 201.728ZM125.289 172.882C126.411 172.882 127.374 173.275 128.184 174.06C128.988 174.846 129.396 175.811 129.396 176.969C129.396 178.127 128.994 179.092 128.184 179.878C127.374 180.664 126.411 181.057 125.289 181.057C124.167 181.057 123.156 180.657 122.366 179.85C121.577 179.051 121.182 178.086 121.182 176.969C121.182 175.853 121.577 174.894 122.366 174.088C123.156 173.288 124.126 172.882 125.289 172.882ZM125.289 201.625C127.921 201.101 129.237 199.233 129.237 196.021C129.202 194.415 128.821 193.098 128.108 192.071C127.388 191.044 126.453 190.527 125.296 190.527C124.139 190.527 123.246 191.051 122.505 192.099C121.764 193.147 121.397 194.456 121.397 196.028C121.397 199.206 122.692 201.074 125.289 201.632V201.625Z" fill="#0F6681"/>
<path d="M147.59 193.56C147.59 190.596 148.678 188.184 150.853 186.337C152.813 184.662 155.514 183.821 158.949 183.821C161.892 183.821 164.386 184.551 166.415 186.02C169.469 188.218 170.993 191.554 170.993 196.021C170.993 200.033 170.01 203.383 168.05 206.071C166.048 208.725 163.402 210.048 160.106 210.048C157.266 210.048 155.022 209 153.374 206.905C152.113 207.953 150.693 208.476 149.114 208.476H138.123V201.721H146.801C147.043 201.721 147.237 201.653 147.383 201.515C147.521 201.342 147.59 201.163 147.59 200.991V193.56ZM155.694 201.728C156.504 202.742 157.536 203.245 158.797 203.245C160.057 203.245 161.075 202.652 161.844 201.466C162.613 200.281 163.001 198.709 163.001 196.759C163.001 194.663 162.599 193.078 161.789 191.996C161.02 191.017 159.967 190.527 158.637 190.527C157.758 190.527 157.024 190.845 156.428 191.472C155.936 192.099 155.694 192.816 155.694 193.615V201.728Z" fill="#0F6681"/>
</g>
<defs>
<clipPath id="clip0_403_2341">
<rect width="139" height="139" fill="white" transform="translate(16)"/>
</clipPath>
<clipPath id="clip1_403_2341">
<rect width="171" height="90" fill="white" transform="translate(0 171)"/>
</clipPath>
</defs>
</svg>
