<svg width="23" height="21" viewBox="0 0 23 21" fill="none" xmlns="http://www.w3.org/2000/svg">
<path d="M19.7548 0H3.24519C1.37931 0.098526 -0.0646327 1.72467 0.00223134 3.65216V12.0643C-0.0582405 13.9893 1.38222 15.6116 3.24519 15.7165H5.60371C6.09217 15.7165 6.48815 15.3077 6.48815 14.8034C6.48815 14.2992 6.09217 13.8904 5.60371 13.8904H3.24519C2.34066 13.7759 1.68787 12.9403 1.77112 12.0034V3.70085C1.68823 2.76652 2.34242 1.93449 3.24519 1.82608H19.7548C20.6576 1.93449 21.3118 2.76652 21.2289 3.70085V12.113C21.3121 13.0498 20.6593 13.8855 19.7548 13.9999H17.3963C16.9078 13.9999 16.5118 14.4087 16.5118 14.913C16.5118 15.4172 16.9078 15.826 17.3963 15.826H19.7548C21.6178 15.7211 23.0582 14.0989 22.9978 12.1739V3.70085C23.0646 1.77337 21.6207 0.147221 19.7548 0.0486955V0Z" fill="white"/>
<path fill-rule="evenodd" clip-rule="evenodd" d="M10.1321 14.7547C10.4949 14.3804 10.987 14.1702 11.5 14.1704V14.2069C12.013 14.2067 12.5051 14.4169 12.8679 14.7912L15.592 17.6034C16.1492 18.1712 16.3172 19.0311 16.0166 19.7775C15.716 20.5238 15.007 21.0073 14.2241 20.9999H8.77591C7.993 21.0073 7.28397 20.5238 6.98339 19.7775C6.68281 19.0311 6.85075 18.1712 7.40797 17.6034L10.1321 14.7547ZM14.0354 18.8938L11.5 16.2765L8.96459 18.8938H14.0354Z" fill="white"/>
</svg>
