<svg width="21" height="19" viewBox="0 0 21 19" fill="none" xmlns="http://www.w3.org/2000/svg">
<path fill-rule="evenodd" clip-rule="evenodd" d="M19.8584 2.29C19.6592 1.03026 18.6115 0.078122 17.3384 0H4.02845C2.75545 0.078122 1.70768 1.03026 1.50845 2.29L0.638449 14.01C0.458449 16.45 2.10845 18.54 4.19845 18.54H16.9884C19.0484 18.54 20.6784 16.54 20.5384 14.1L19.8584 2.29ZM4.02845 1.54H17.3384C17.8507 1.62644 18.252 2.02776 18.3384 2.54L18.7584 9.7H15.4884C14.1758 9.74547 12.9969 10.516 12.4284 11.7C12.0734 12.4133 11.3452 12.8643 10.5484 12.8643C9.75165 12.8643 9.02349 12.4133 8.66845 11.7C8.10172 10.5144 6.9218 9.74323 5.60845 9.7H2.46845L2.99845 2.55C3.0876 2.0262 3.50301 1.61886 4.02845 1.54ZM16.9884 17.04C17.4856 17.026 17.9553 16.8092 18.2884 16.44C18.8244 15.8266 19.088 15.0216 19.0184 14.21L18.8484 11.21H15.4684C14.7125 11.2614 14.0451 11.7217 13.7284 12.41C13.1193 13.6151 11.8838 14.375 10.5334 14.375C9.1831 14.375 7.94763 13.6151 7.33845 12.41C7.01835 11.7202 6.34729 11.26 5.58845 11.21H2.35845L2.13845 14.12C2.0639 14.9552 2.33087 15.785 2.87845 16.42C3.21279 16.8016 3.69126 17.0264 4.19845 17.04H16.9884Z" fill="black"/>
</svg>
