<svg width="22" height="21" viewBox="0 0 22 21" fill="none" xmlns="http://www.w3.org/2000/svg">
<path fill-rule="evenodd" clip-rule="evenodd" d="M21.2398 2.59385C21.0198 1.16696 19.8627 0.0884877 18.4569 0H3.75848C2.35269 0.0884877 1.19562 1.16696 0.975607 2.59385L0.0148518 15.8689C-0.183925 18.6327 1.6382 21 3.94622 21H18.0704C20.3453 21 22.1453 18.7346 21.9907 15.9709L21.2398 2.59385ZM3.75848 1.74434H18.4569C19.0226 1.84224 19.4658 2.29682 19.5612 2.87702L20.0251 10.9871H16.4139C14.9644 11.0386 13.6625 11.9113 13.0347 13.2524C12.6427 14.0604 11.8385 14.5712 10.9586 14.5712C10.0787 14.5712 9.27458 14.0604 8.88251 13.2524C8.25666 11.9095 6.95366 11.036 5.5033 10.9871H2.03575L2.62104 2.88835C2.71948 2.29505 3.17823 1.83366 3.75848 1.74434ZM18.0704 19.301C18.6194 19.2851 19.1381 19.0396 19.506 18.6214C20.0979 17.9266 20.3889 17.0148 20.3122 16.0955L20.1244 12.6974H16.3919C15.5571 12.7557 14.8201 13.277 14.4703 14.0566C13.7976 15.4217 12.4333 16.2823 10.9421 16.2823C9.45084 16.2823 8.0865 15.4217 7.41377 14.0566C7.06028 13.2753 6.31922 12.7541 5.48121 12.6974H1.91427L1.67132 15.9935C1.589 16.9395 1.88382 17.8794 2.48852 18.5987C2.85774 19.031 3.38612 19.2855 3.94622 19.301H18.0704Z" fill="white"/>
</svg>
