<svg width="21" height="22" viewBox="0 0 21 22" fill="none" xmlns="http://www.w3.org/2000/svg">
<path fill-rule="evenodd" clip-rule="evenodd" d="M12.887 1.16064C12.3383 0.596213 11.5846 0.277863 10.7974 0.278076H9.54343C8.77085 0.278067 8.03011 0.585928 7.48512 1.13354C6.94301 1.67825 6.63905 2.4155 6.63951 3.18367C6.62875 3.67785 6.22631 4.07397 5.73181 4.07669C5.5873 4.07431 5.44588 4.03426 5.32154 3.96046L5.30832 3.95276C3.91856 3.15642 2.1475 3.63172 1.34256 5.01463L0.67993 6.10389L0.667806 6.12437C-0.133051 7.51428 0.340502 9.2901 1.7271 10.0967L1.72992 10.0983C2.01242 10.2614 2.18645 10.5629 2.18645 10.8891C2.18645 11.2153 2.01166 11.5171 1.72916 11.6802C0.342042 12.4827 -0.132809 14.2571 0.668124 15.6452L0.669172 15.647L1.29638 16.7287C1.67267 17.4018 2.30065 17.8984 3.04273 18.1093C3.78824 18.3212 4.58745 18.2273 5.26352 17.8483L5.27852 17.8397C5.48463 17.7195 5.73023 17.6865 5.96075 17.7482C6.19127 17.8099 6.38759 17.9611 6.50608 18.1682L6.51414 18.1821C6.58817 18.3068 6.62824 18.4487 6.63038 18.5937C6.634 20.1995 7.93683 21.5 9.54342 21.5H10.7974C12.4008 21.5001 13.7028 20.2043 13.7105 18.6009L13.7105 18.5913C13.7093 18.3501 13.8046 18.1184 13.9752 17.9478C14.1432 17.7798 14.3705 17.6848 14.6078 17.6831C14.7602 17.689 14.9091 17.7315 15.0417 17.8071C16.4291 18.605 18.2002 18.1339 19.0082 16.753L19.6641 15.6599L19.6706 15.6488C20.0597 14.9809 20.1665 14.1855 19.9674 13.4387C19.7682 12.6919 19.2795 12.0553 18.6096 11.6699C18.4011 11.5499 18.249 11.3517 18.187 11.1193C18.125 10.8868 18.1582 10.6393 18.2794 10.4314L18.283 10.425C18.3605 10.2897 18.4727 10.1776 18.608 10.1001L18.6158 10.0955C19.9638 9.30708 20.4453 7.60112 19.7255 6.22918C19.7101 6.19333 19.6926 6.15832 19.673 6.12432L19.0506 5.04429C18.2488 3.65264 16.4718 3.17249 15.0783 3.971L15.0679 3.9771C14.8611 4.09894 14.6143 4.13351 14.3819 4.07318C14.1496 4.01286 13.9508 3.86259 13.8294 3.65552L13.8267 3.65099C13.7544 3.52916 13.7145 3.39094 13.7107 3.24948C13.7263 2.47147 13.4299 1.71912 12.887 1.16064ZM15.0417 17.8071L15.0426 17.8076L15.5388 16.9394L15.0396 17.8059L15.0417 17.8071ZM14.6078 17.6831L14.5968 17.6828L14.6235 16.6831L14.6187 17.6831L14.6078 17.6831ZM6.63038 18.5937L6.63038 18.587H7.63038L6.63043 18.5974L6.63038 18.5937ZM1.29638 16.7287L1.29119 16.7193L2.16585 16.2346L1.30075 16.7362L1.29638 16.7287ZM1.34256 5.01463L1.34812 5.0055L2.20246 5.52522L1.33599 5.02598L1.34256 5.01463ZM5.73181 4.07669L5.73687 4.07676L5.72649 5.0767L5.72659 4.0767L5.73181 4.07669ZM6.63951 3.18367L6.63963 3.17677L7.63953 3.19112L6.63954 3.19593L6.63951 3.18367ZM10.7978 2.27808C11.0446 2.27797 11.2809 2.37776 11.4529 2.5547C11.6249 2.73164 11.718 2.97067 11.7109 3.21733C11.7105 3.23036 11.7104 3.24339 11.7105 3.25642C11.7157 3.75399 11.8519 4.24138 12.1055 4.66949C12.4957 5.33354 13.1337 5.81541 13.8793 6.00899C14.6232 6.20215 15.4133 6.09248 16.0764 5.70423C16.5126 5.45695 17.0671 5.60788 17.3177 6.04282L17.8964 7.04705C17.909 7.07473 17.9229 7.10188 17.9381 7.12843C18.1854 7.5618 18.0389 8.11314 17.6099 8.36685C17.1688 8.62044 16.8028 8.98652 16.5494 9.42771C16.1618 10.0949 16.0557 10.889 16.2545 11.6346C16.4536 12.3814 16.9423 13.018 17.6123 13.4035C17.8208 13.5234 17.9729 13.7216 18.0349 13.954C18.0964 14.1848 18.0641 14.4305 17.9451 14.6374L17.29 15.7292L17.2831 15.7409C17.0303 16.1755 16.4737 16.324 16.0381 16.0729L16.0351 16.0712C15.6125 15.8297 15.1368 15.6965 14.6503 15.6835L14.6283 15.6831C13.8533 15.6794 13.109 15.9856 12.561 16.5336C12.0144 17.0802 11.7084 17.822 11.7105 18.5948C11.7062 19.0958 11.2988 19.5 10.7974 19.5H9.54342C9.03916 19.5 8.63043 19.0913 8.63043 18.587L8.63032 18.5766C8.62517 18.0809 8.4899 17.5952 8.23811 17.1682C7.85434 16.5016 7.22099 16.0151 6.47777 15.8162C5.73556 15.6176 4.945 15.7222 4.28017 16.1067C4.06942 16.223 3.82119 16.2514 3.5895 16.1855C3.35583 16.1191 3.15826 15.9623 3.0405 15.7499L3.03094 15.733L2.39998 14.6448C2.15136 14.213 2.29906 13.6614 2.73022 13.4117C3.63135 12.8913 4.18645 11.9297 4.18645 10.8891C4.18645 9.84887 3.6318 8.88765 2.73133 8.3671C2.30063 8.11554 2.15191 7.56523 2.3959 7.13134L3.05679 6.04494L3.06893 6.02445C3.31933 5.58984 3.87316 5.43888 4.30923 5.68536C4.73584 5.93656 5.22094 6.07156 5.7161 6.0767L5.72638 6.0767C7.31902 6.07687 8.61656 4.79795 8.63943 3.20547L8.63952 3.18631C8.63836 2.94583 8.73308 2.71481 8.90272 2.54435C9.07236 2.3739 9.30293 2.27807 9.54341 2.27808H10.7978ZM8.53882 10.8891C8.53882 9.98546 9.27135 9.25293 10.175 9.25293C11.0786 9.25293 11.8111 9.98546 11.8111 10.8891C11.8111 11.7927 11.0786 12.5252 10.175 12.5252C9.27135 12.5252 8.53882 11.7927 8.53882 10.8891ZM10.175 7.25293C8.16678 7.25293 6.53882 8.88089 6.53882 10.8891C6.53882 12.8973 8.16678 14.5252 10.175 14.5252C12.1832 14.5252 13.8111 12.8973 13.8111 10.8891C13.8111 8.88089 12.1832 7.25293 10.175 7.25293Z" fill="#64748B"/>
</svg>
